<?xml version="1.0" encoding="utf-8"?>
<!-- Generator: Adobe Illustrator 28.1.0, SVG Export Plug-In . SVG Version: 6.00 Build 0)  -->
<svg version="1.1" id="레이어_1" xmlns="http://www.w3.org/2000/svg" xmlns:xlink="http://www.w3.org/1999/xlink" x="0px"
	 y="0px" viewBox="0 0 120 53.4" style="enable-background:new 0 0 120 53.4;" xml:space="preserve">
<style type="text/css">
	.st0{fill-rule:evenodd;clip-rule:evenodd;fill:#EE0000;}
</style>
<path class="st0" d="M101.1,30.4h0.6v-2.9h0l1,2.9h0.5l1-2.9h0v2.9h0.6v-3.7h-0.9l-1,2.9h0l-1-2.9h-0.9V30.4z M97.6,27.2h1.2v3.2
	h0.7v-3.2h1.2v-0.6h-3V27.2z M90,30.4l30-30h-18.1l-30,30H90z M85.7,13.4H49.4c-11.1,0-13,0.6-17.7,5.3C27.2,23.2,20,30.4,20,30.4
	h15.7l3.8-3.8c2.5-2.5,3.7-2.7,8.9-2.7h26.8L85.7,13.4z M31.2,16.6c-3.3,3.1-10.4,10-14.2,13.7H0c0,0,13.6-13.5,21.1-20.9
	c7.8-7.4,11.6-9.1,25.9-9.1h51.8L87.5,11.6H48C38,11.6,35.8,12.3,31.2,16.6z M110,33.4H10c-5.5,0-10,4.5-10,10c0,5.5,4.5,10,10,10
	h100c5.5,0,10-4.5,10-10C120,37.9,115.5,33.4,110,33.4z M51.8,46.1c-0.2,0.4-0.4,0.7-0.6,1s-0.5,0.3-0.9,0.3c-0.4,0-0.7-0.1-0.9-0.4
	c-0.2-0.2-0.3-0.6-0.3-1l-0.4-5c0-0.1,0-0.2,0-0.2c0-0.1-0.1-0.1-0.1-0.1c-0.1,0-0.1,0-0.1,0.1c0,0-0.1,0.1-0.1,0.2l-1.8,5
	c-0.1,0.4-0.3,0.7-0.5,1c-0.2,0.2-0.5,0.4-1,0.4c-0.4,0-0.7-0.1-0.9-0.3c-0.2-0.2-0.3-0.6-0.3-1l-0.9-6.3H44l0.9,6.2
	c0,0.1,0,0.2,0.1,0.2s0.1,0.1,0.1,0.1c0.1,0,0.1,0,0.1-0.1c0,0,0.1-0.1,0.1-0.2l1.8-4.9c0.2-0.4,0.3-0.8,0.6-1
	c0.2-0.3,0.5-0.4,0.9-0.4c0.4,0,0.7,0.1,0.9,0.4s0.2,0.6,0.3,1l0.4,4.9c0,0.1,0,0.2,0,0.2c0,0,0.1,0.1,0.1,0.1c0.1,0,0.1,0,0.1-0.1
	c0,0,0.1-0.1,0.1-0.2l2.6-6.2h1.2L51.8,46.1z M59.2,47.3h-1.1l0.8-6h1.1L59.2,47.3z M60.2,40.4h-1.1l0.1-1.1h1.1L60.2,40.4z
	 M70.4,47.3H69l-1.7-2.1c-0.1-0.2-0.2-0.3-0.4-0.3c-0.1,0-0.3-0.1-0.5-0.1h-0.6l-0.4,2.5h-1.1l1-7.5h1.1l-0.6,4h0.6
	c0.2,0,0.4,0,0.5-0.1c0.1,0,0.3-0.2,0.5-0.3l2.2-2.1h1.3l-3.2,3L70.4,47.3z M76.1,47.3H75l0.8-6H77L76.1,47.3z M77.1,40.4H76
	l0.1-1.1h1.1L77.1,40.4z"/>
</svg>
